<?xml version="1.0"?>
<svg xmlns="http://www.w3.org/2000/svg" viewBox="0 0 512 512" width="512" height="512"><g id="outline"><path d="M474.973,194.728l-22.7-8.288V170.628a35.67,35.67,0,0,0,8-22.628V130.981a26.141,26.141,0,0,0,4.012-24.244l-.25-.75A26.273,26.273,0,0,0,439.075,88h-7.492L424,80.417V48a8,8,0,0,0-8-8H40a8,8,0,0,0-8,8V296H24a8,8,0,0,0-8,8v32a8,8,0,0,0,8,8H139.056L80.845,460.422A8,8,0,0,0,88,472h40a8,8,0,0,0,7.155-4.422L196.944,344H224V464a8,8,0,0,0,8,8h40a8,8,0,0,0,8-8V344h99.69S352,406.881,352,408v56a8,8,0,0,0,8,8h48a8,8,0,0,0,8-8V426.806l16-20V464a8,8,0,0,0,8,8h48a8,8,0,0,0,8-8V224.788A32.1,32.1,0,0,0,474.973,194.728ZM480,224.788V328H400V248a8,8,0,0,0-4.4-7.143L371.088,228.5l4.522-8.742a15.99,15.99,0,0,1,8.442-7.572l18.969-7.335h0L415.558,200h27.2l26.731,9.758A16.053,16.053,0,0,1,480,224.788ZM218.9,296l-28.064-23.386,33.63-30.267,36.482,27.361h-15.8A21.06,21.06,0,0,0,224.66,296ZM193.9,296H59.314l61.177-61.177Zm90.954-28.356L267.205,254.4a15.987,15.987,0,0,1,27.843,4.182Zm-22.246,22.7L256.956,296h-11.81a5.146,5.146,0,1,1,0-10.292h41.977A5.145,5.145,0,0,1,291.4,288H268.269A8,8,0,0,0,262.612,290.343Zm43.316-9.115a21.265,21.265,0,0,0-5.058-6.409L328.5,250.257l7.509,5.461-1.8,2.886ZM272,176V160h24v16Zm40-19.056,8.614-4.307,19.065,6.355,38.364,38.365a31.966,31.966,0,0,0-14.243,11.13l-22.143-22.144a7.994,7.994,0,0,0-3.717-2.1L312,177.754ZM404.269,136h11.056l5.789,11.578A8,8,0,0,0,428.269,152h15.6a19.845,19.845,0,0,1-5.612,10.285,8,8,0,0,0-1.99,8.25V184h-16V173.3a8,8,0,0,0-4.567-7.226A20.11,20.11,0,0,1,404.269,148ZM384,270.835l-.9-.656.9-1.354ZM374.215,283.5,384,290.619V296H365.884ZM349.566,312H384v16H330.366Zm89.509-208a10.293,10.293,0,0,1,9.777,7.047l.25.75a10.25,10.25,0,0,1-2.49,10.546A8,8,0,0,0,444.269,128v8H433.213l-5.789-11.578A8,8,0,0,0,420.269,120H401.213l-7.431-14.862a11.715,11.715,0,0,1,15.355-15.9,8.006,8.006,0,0,0,4.649,3.587l8.826,8.827A8,8,0,0,0,428.269,104ZM408,56V72.438a27.708,27.708,0,0,0-28.528,39.855l8.8,17.6V148a36.208,36.208,0,0,0,16,29.928v9.282l-4.324,1.672-11.624-3.874-38.664-38.665a7.992,7.992,0,0,0-3.127-1.932l-24-8a8,8,0,0,0-6.108.434L302.112,144H264.925a77.362,77.362,0,0,0-26.4-1.608,32.087,32.087,0,0,0-21.775-21.172,27.85,27.85,0,0,0-8.928-6.584,32,32,0,0,0-52.991,8.19A32.007,32.007,0,0,0,168,184h40a7.975,7.975,0,0,0,.933-.059,76.805,76.805,0,0,0,38.152,10.15A77.678,77.678,0,0,0,264.919,192h38.1l28.9,7.224,22.433,22.433a7.968,7.968,0,0,0,1.634,1.229l-2.662,5.146-8.8,14.085-11.807-8.587a8,8,0,0,0-10.02.491l-15.239,13.545a31.968,31.968,0,0,0-53.032-2.755L228.8,225.6a8,8,0,0,0-10.152.454l-40.234,36.211-53.292-44.411a8,8,0,0,0-10.779.489L48,284.687v-74.4H64A32,32,0,0,0,72.742,147.5a27.866,27.866,0,0,0-8.925-6.58A31.747,31.747,0,0,0,48,131.3V56ZM195.2,161.6A8,8,0,0,0,192,168H168a16,16,0,0,1-4.649-31.312,8,8,0,0,0,5.337-5.337A16.1,16.1,0,0,1,184,120a15.914,15.914,0,0,1,12.624,6.179,7.993,7.993,0,0,0,3.532,2.584,11.967,11.967,0,0,1,5.6,4.278,8,8,0,0,0,5.095,3.218,16.02,16.02,0,0,1,11.929,9.606,77.481,77.481,0,0,0-21.966,11.526Zm18.328,6.4A60.978,60.978,0,0,1,256,158.562v18.876A60.962,60.962,0,0,1,213.528,168ZM48,148.424a16.1,16.1,0,0,1,4.624,4.041,7.993,7.993,0,0,0,3.532,2.584,11.967,11.967,0,0,1,5.6,4.278,8,8,0,0,0,5.1,3.218A16,16,0,0,1,64,194.286H48ZM32,312H244.277a7.975,7.975,0,0,0,1.812,5.081L255.066,328H32Zm91.056,144H100.944l56-112h22.112ZM264,456H240V344h24Zm11.779-128-12.721-15.475L271.583,304h28.686a8,8,0,0,0,5-1.753l40-32a7.994,7.994,0,0,0,1.786-2.007l15.924-25.479,13.881,7.933-26.6,39.9-8.67,7.226-.012.01L305.373,328ZM480,456H448V384a8,8,0,0,0-14.247-5l-32,40A8,8,0,0,0,400,424v32H368V409.7L397.2,344H480Z"/><path d="M216,88a17.79,17.79,0,0,1,16,9.89l.845,1.689a8,8,0,0,0,14.31,0l.845-1.69A17.791,17.791,0,0,1,264,88a8,8,0,0,0,0-16,33.7,33.7,0,0,0-24,9.931A33.7,33.7,0,0,0,216,72a8,8,0,0,0,0,16Z"/><path d="M264,104a8,8,0,0,0,8,8,17.79,17.79,0,0,1,16,9.89l.845,1.689a8,8,0,0,0,14.31,0l.845-1.69A17.791,17.791,0,0,1,320,112a8,8,0,0,0,0-16,33.7,33.7,0,0,0-24,9.931A33.7,33.7,0,0,0,272,96,8,8,0,0,0,264,104Z"/></g></svg>
