<svg id="Capa_1" enable-background="new 0 0 512 512" height="512" viewBox="0 0 512 512" width="512" xmlns="http://www.w3.org/2000/svg"><g><g><path clip-rule="evenodd" d="m479.901 10h-447.83c-12.142 0-22.071 9.921-22.071 22.053v83.167h491.972l.028-83.167c0-12.132-9.957-22.053-22.099-22.053z" fill="#ff7d95" fill-rule="evenodd"/></g><g><path clip-rule="evenodd" d="m502 479.919-.028-364.699h-491.972v364.699c0 12.132 9.929 22.081 22.071 22.081h447.83c12.142 0 22.099-9.949 22.099-22.081zm-62.014-195.105h-214.61c-6.071 0-11.007-4.961-11.007-10.998v-104.937c0-6.066 4.936-10.998 11.007-10.998h214.61c6.071 0 11.007 4.932 11.007 10.998v104.937c0 6.037-4.936 10.998-11.007 10.998zm-368 47.592h214.638c6.043 0 11.007 4.932 11.007 10.998v104.937c0 6.038-4.965 10.998-11.007 10.998h-214.638c-6.043 0-11.007-4.961-11.007-10.998v-104.936c0-6.066 4.964-10.999 11.007-10.999zm323.518 71.489c30.525 0 55.489 24.944 55.489 55.445h-110.979c0-30.501 24.965-55.445 55.49-55.445zm-33.078-33.052c0-18.255 14.809-33.051 33.078-33.051 18.27 0 33.078 14.797 33.078 33.051 0 18.255-14.809 33.051-33.078 33.051-18.27.001-33.078-14.796-33.078-33.051zm-245.958-141.502c-18.241 0-33.05-14.797-33.05-33.023 0-18.255 14.809-33.051 33.05-33.051 18.27 0 33.078 14.797 33.078 33.051 0 18.226-14.808 33.023-33.078 33.023zm55.518 55.473h-111.007c0-30.5 24.965-55.473 55.489-55.473s55.518 24.972 55.518 55.473z" fill="#fff" fill-rule="evenodd"/></g><g><path clip-rule="evenodd" d="m439.986 157.881h-214.61c-6.071 0-11.007 4.932-11.007 10.998v104.937c0 6.038 4.936 10.998 11.007 10.998h214.61c6.071 0 11.007-4.961 11.007-10.998v-104.937c0-6.066-4.936-10.998-11.007-10.998z" fill="#d0f2d2" fill-rule="evenodd"/></g><g><path clip-rule="evenodd" d="m149.546 196.318c0-18.255-14.809-33.051-33.078-33.051-18.241 0-33.05 14.797-33.05 33.051 0 18.226 14.809 33.023 33.05 33.023 18.27 0 33.078-14.797 33.078-33.023z" fill="#fff7bf" fill-rule="evenodd"/></g><g><path clip-rule="evenodd" d="m171.986 284.814c0-30.5-24.993-55.473-55.518-55.473s-55.489 24.973-55.489 55.473z" fill="#ff7d95" fill-rule="evenodd"/></g><g><path clip-rule="evenodd" d="m286.624 332.406h-214.638c-6.043 0-11.007 4.932-11.007 10.998v104.937c0 6.038 4.965 10.998 11.007 10.998h214.638c6.043 0 11.007-4.961 11.007-10.998v-104.936c0-6.066-4.964-10.999-11.007-10.999z" fill="#ffec80" fill-rule="evenodd"/></g><g><path clip-rule="evenodd" d="m428.582 370.843c0-18.255-14.809-33.051-33.078-33.051s-33.078 14.797-33.078 33.051c0 18.255 14.809 33.051 33.078 33.051 18.269.001 33.078-14.796 33.078-33.051z" fill="#fff7bf" fill-rule="evenodd"/></g><g><path clip-rule="evenodd" d="m450.993 459.339c0-30.5-24.965-55.445-55.489-55.445-30.525 0-55.489 24.944-55.489 55.445z" fill="#a0e5a5" fill-rule="evenodd"/></g><g><path d="m387.73 52.61h-.057c-5.522 0-9.972 4.478-9.972 10s4.506 10 10.028 10 10-4.478 10-10-4.476-10-9.999-10z"/><path d="m441.716 52.61h-.057c-5.522 0-9.972 4.478-9.972 10s4.506 10 10.028 10 10-4.478 10-10-4.477-10-9.999-10z"/><path d="m333.773 52.61h-.057c-5.522 0-9.972 4.478-9.972 10s4.506 10 10.028 10 10-4.478 10-10-4.476-10-9.999-10z"/><path d="m220.525 52.61h-150.241c-5.523 0-10 4.478-10 10s4.477 10 10 10h150.241c5.523 0 10-4.478 10-10s-4.477-10-10-10z"/><path d="m479.9 0h-447.829c-17.684 0-32.071 14.379-32.071 32.053v447.866c0 17.689 14.387 32.081 32.071 32.081h447.829c17.7 0 32.1-14.392 32.1-32.081v-447.866c0-17.674-14.399-32.053-32.1-32.053zm12.1 479.919c0 6.661-5.428 12.081-12.1 12.081h-447.829c-6.656 0-12.071-5.42-12.071-12.081v-354.699h472zm0-374.699h-472v-73.167c0-6.646 5.415-12.053 12.071-12.053h447.829c6.672 0 12.1 5.407 12.1 12.053z"/><path d="m60.979 294.813h111.007c5.523 0 10-4.478 10-10 0-25.161-14.285-47.039-35.168-57.997 7.856-7.798 12.728-18.59 12.728-30.5 0-23.738-19.325-43.051-43.078-43.051-23.738 0-43.05 19.312-43.05 43.051 0 11.908 4.868 22.7 12.717 30.498-20.876 10.957-35.157 32.836-35.157 57.999.001 5.523 4.478 10 10.001 10zm55.489-121.546c12.725 0 23.078 10.341 23.078 23.051 0 12.695-10.353 23.023-23.078 23.023-12.709 0-23.05-10.328-23.05-23.023 0-12.711 10.341-23.051 23.05-23.051zm0 66.074c21.659 0 39.82 15.196 44.395 35.473h-88.763c4.572-20.277 22.723-35.473 44.368-35.473z"/><path d="m425.846 401.37c7.86-7.803 12.736-18.606 12.736-30.526 0-23.739-19.325-43.052-43.078-43.052s-43.078 19.312-43.078 43.052c0 11.921 4.876 22.723 12.736 30.526-20.871 10.954-35.147 32.821-35.147 57.97 0 5.522 4.478 10 10 10h110.979c5.522 0 10-4.478 10-10-.001-25.149-14.277-47.016-35.148-57.97zm-30.342-53.578c12.726 0 23.078 10.341 23.078 23.052 0 12.71-10.353 23.051-23.078 23.051s-23.078-10.341-23.078-23.051c0-12.711 10.352-23.052 23.078-23.052zm-44.366 101.548c4.574-20.262 22.723-35.445 44.366-35.445s39.792 15.184 44.366 35.445z"/><path d="m341.546 210.173h62.695c5.522 0 10-4.478 10-10s-4.478-10-10-10h-62.695c-5.522 0-10 4.478-10 10s4.477 10 10 10z"/><path d="m261.092 210.173h30.412c5.522 0 10-4.478 10-10s-4.478-10-10-10h-30.412c-5.523 0-10 4.478-10 10s4.477 10 10 10z"/><path d="m225.376 294.813h214.609c11.584 0 21.008-9.42 21.008-20.998v-104.936c0-11.578-9.424-20.998-21.008-20.998h-214.609c-11.583 0-21.007 9.42-21.007 20.998v104.937c0 11.578 9.423 20.997 21.007 20.997zm-1.007-125.934c0-.541.461-.998 1.007-.998h214.609c.546 0 1.008.457 1.008.998v104.937c0 .531-.471.998-1.008.998h-214.609c-.537 0-1.007-.467-1.007-.998z"/><path d="m71.986 469.34h62.383c5.523 0 10-4.478 10-10s-4.477-10-10-10h-62.383c-.518 0-1.007-.485-1.007-.999v-104.937c0-.531.471-.998 1.007-.998h214.638c.536 0 1.007.467 1.007.998v104.937c0 .514-.489.999-1.007.999h-62.383c-5.523 0-10 4.478-10 10s4.477 10 10 10h62.383c11.583 0 21.007-9.42 21.007-20.999v-104.937c0-11.578-9.424-20.998-21.007-20.998h-214.638c-11.583 0-21.007 9.42-21.007 20.998v104.937c0 11.579 9.423 20.999 21.007 20.999z"/><path d="m261.092 252.493h62.724c5.522 0 10-4.478 10-10s-4.478-10-10-10h-62.724c-5.523 0-10 4.478-10 10s4.477 10 10 10z"/><path d="m404.241 232.493h-30.383c-5.522 0-10 4.478-10 10s4.478 10 10 10h30.383c5.522 0 10-4.478 10-10s-4.477-10-10-10z"/><path d="m170.425 364.698h-62.695c-5.523 0-10 4.478-10 10s4.477 10 10 10h62.695c5.523 0 10-4.478 10-10s-4.477-10-10-10z"/><path d="m250.879 384.698c5.523 0 10-4.478 10-10s-4.478-10-10-10h-30.411c-5.523 0-10 4.478-10 10s4.477 10 10 10z"/><path d="m178.185 417.019c0 5.522 4.477 10 10 10h62.695c5.523 0 10-4.478 10-10s-4.478-10-10-10h-62.695c-5.523 0-10 4.477-10 10z"/><path d="m138.142 407.019h-30.412c-5.523 0-10 4.478-10 10s4.477 10 10 10h30.411c5.523 0 10-4.478 10-10s-4.476-10-9.999-10z"/><path d="m179.305 449.34c-5.523 0-10 4.478-10 10s4.477 10 10 10h.057c5.523 0 9.972-4.478 9.972-10s-4.506-10-10.029-10z"/></g></g></svg>