<svg id="Capa_1" enable-background="new 0 0 512.007 512.007" height="512" viewBox="0 0 512.007 512.007" width="512" xmlns="http://www.w3.org/2000/svg"><g><path d="m271.555 277.714c-24.738 9.673-53.503 16.74-85.495 21.006-4.106.547-6.991 4.32-6.443 8.425.502 3.77 3.723 6.51 7.425 6.51.33 0 .664-.022 1.001-.067 33.183-4.425 63.118-11.794 88.975-21.905 3.857-1.508 5.762-5.858 4.253-9.716-1.508-3.857-5.855-5.763-9.716-4.253zm87.337-112.617c2.436-3.35 1.697-8.041-1.653-10.477-3.351-2.438-8.04-1.696-10.477 1.653-25.512 35.071-80.838 65.288-114.537 70.473-4.094.629-6.902 4.459-6.272 8.553.57 3.708 3.765 6.36 7.403 6.36.379 0 .763-.029 1.15-.088 37.388-5.752 96.292-37.854 124.386-76.474zm147.355-23.504c-35.759-43.367-71.641-74.669-106.71-93.101-1.704-5.965-6.498-10.471-12.709-11.731-3.706-.751-7.395-.246-10.609 1.292-15.899-5.888-31.907-9.297-48.811-10.393-13.078-.843-24.846 7.333-28.619 19.896-5.622 18.722-23.216 31.797-42.787 31.797-19.57 0-37.165-13.075-42.787-31.797-3.773-12.563-15.536-20.745-28.619-19.896-20.519 1.331-52.539 6.26-93.544 33.589-3.446 2.297-4.378 6.953-2.081 10.4s6.955 4.379 10.4 2.081c38.01-25.332 67.397-29.883 86.196-31.101 6.076-.388 11.53 3.408 13.282 9.242 7.511 25.013 31.014 42.482 57.153 42.482s49.642-17.469 57.153-42.482c1.752-5.835 7.208-9.638 13.282-9.242 13.447.872 26.278 3.347 38.967 7.527-19.658 28.707-54.158 58.906-93.745 81.833-43.522 25.205-87.599 38.759-120.924 37.221-2.56-.122-5.08.122-7.502.678v-11.17c0-3.034-1.827-5.768-4.63-6.929-2.801-1.16-6.028-.519-8.173 1.626l-31.731 31.731-66.119-51.739c13.54-15.084 27.055-28.371 40.342-39.637 3.16-2.679 3.549-7.411.871-10.571s-7.411-3.55-10.571-.871c-18.953 16.068-38.287 36.008-57.463 59.264-4.357 5.285-6.349 11.938-5.607 18.736.738 6.769 4.098 12.807 9.458 17.002l48.788 38.177c4.553 3.563 10.004 5.317 15.435 5.317 6.452 0 12.876-2.476 17.733-7.333l13.043-13.043c.01-.01.021-.021.032-.031l23.593-23.593v2.292c-1.176 1.428-2.216 2.982-3.082 4.658-14.203 27.47-19.059 86.442-20.631 131.076-.941 26.719-.911 54.299-.293 78.262.001.017-.001.033 0 .049 0 .005.001.01.002.016.054 2.109.114 4.182.178 6.231 0 .057.004.113.005.169.566 18.247 1.472 34.024 2.535 45.149 1.034 10.827 7.925 20.061 17.984 24.102 24.672 9.908 71.498 15.575 128.6 15.575.4 0 .801-.001 1.202-.001 53.303-.074 105.591-5.146 136.46-13.237 10.677-2.798 18.941-11.541 21.054-22.274 2.829-14.371 5.073-30.612 6.709-48.458.009-.085.017-.169.024-.254.593-6.502 1.108-13.211 1.538-20.127.257-4.134-2.886-7.694-7.02-7.951-4.142-.264-7.694 2.886-7.951 7.02-.109 1.755-.225 3.493-.345 5.221-10.22-2.265-18.532-8.236-27.378-16.333-8.122-7.432-20.358-7.438-28.464-.016-9.169 8.395-20.324 17.35-36.716 17.35-8.595 0-19.229-1.341-36.716-17.351-8.107-7.423-20.337-7.422-28.445 0-9.169 8.395-20.324 17.351-36.716 17.351-8.595 0-19.23-1.341-36.716-17.351-8.107-7.422-20.345-7.414-28.466.017-8.62 7.887-16.723 13.748-26.59 16.139-1.262-68.387 2.662-160.957 19.481-193.488 2.15-4.158 6.699-6.7 11.563-6.471 1.914.089 3.852.133 5.825.133 35.277-.001 79.803-14.159 123.313-39.358 44.928-26.02 82.367-59.786 102.715-92.641.575-.927 1.38-.983 1.954-.867 1.154.234 1.293 1.128 1.338 1.421 3.336 21.461 10.969 74.178 16.317 138.525-.002.41.035.819.1 1.224 3.849 46.667 6.481 99.355 5.4 150.636-.087 4.142 3.199 7.569 7.34 7.657.054.001.108.001.161.001 4.069 0 7.409-3.255 7.496-7.342.942-44.727-.907-90.486-3.928-132.463l2.37 2.37c4.858 4.858 11.281 7.333 17.733 7.333 5.43 0 10.882-1.754 15.435-5.317l48.787-38.177c5.361-4.195 8.72-10.233 9.458-17.002.742-6.79-1.249-13.444-5.607-18.729zm-425.288 61.293c-3.592 3.592-9.317 3.94-13.318.809l-48.788-38.177c-2.148-1.681-3.494-4.101-3.79-6.814-.299-2.743.507-5.43 2.269-7.567 1.79-2.171 3.58-4.301 5.371-6.411l65.31 51.106zm74.75 176.194c2.348-2.148 5.877-2.157 8.211-.02 12.076 11.056 26.109 21.287 46.846 21.287s34.77-10.231 46.845-21.287c2.333-2.137 5.853-2.138 8.188 0 12.076 11.056 26.109 21.287 46.845 21.287s34.769-10.231 46.845-21.287c2.334-2.136 5.863-2.129 8.208.018 7.527 6.889 15.846 13.474 26.131 17.446-32.212 7.195-82.193 11.893-133.751 12.312-54.994.45-102.491-3.915-131.652-11.862 10.834-3.913 19.48-10.753 27.284-17.894zm96.477 44.789c2.649 0 5.323-.011 8.013-.033 56.451-.459 109.515-5.754 142.741-14.048-1.448 13.14-3.255 25.253-5.411 36.209-1.009 5.126-4.989 9.311-10.139 10.661-29.722 7.79-80.561 12.674-132.678 12.747-.383 0-.765.001-1.146.001-54.475 0-100.416-5.406-123.045-14.495-4.833-1.941-8.144-6.389-8.643-11.609-.848-8.873-1.579-20.229-2.119-33.216 29.061 8.856 76.053 13.783 132.427 13.783zm163.663-240.712c-4.228-48.757-9.648-90.258-13.333-115.799 25.22 15.048 50.985 37.18 76.91 66.05zm81.094-24.454c-.296 2.714-1.642 5.134-3.79 6.815l-48.788 38.178c-4 3.131-9.727 2.782-13.318-.81l-7.054-7.054 65.311-51.107c1.79 2.108 3.58 4.239 5.371 6.411 1.761 2.137 2.568 4.825 2.268 7.567z"/></g></svg>