<svg id="Warstwa_1" data-name="Warstwa 1" xmlns="http://www.w3.org/2000/svg" xmlns:xlink="http://www.w3.org/1999/xlink" viewBox="0 0 30.17 31.19"><defs><style>.cls-1{fill:url(#Gradient_bez_nazwy_25);}</style><linearGradient id="Gradient_bez_nazwy_25" x1="15.95" y1="37.09" x2="15.95" y2="9.12" gradientUnits="userSpaceOnUse"><stop offset="0" stop-color="#fff" stop-opacity="0"/><stop offset="0.12" stop-color="#fad9d8" stop-opacity="0.2"/><stop offset="0.4" stop-color="#f08985" stop-opacity="0.63"/><stop offset="0.6" stop-color="#ea5650" stop-opacity="0.9"/><stop offset="0.69" stop-color="#e7423c"/></linearGradient></defs><path class="cls-1" d="M30.82,17C28.84,9.68,15.87,8.14,14,5.58c-3.09-4.2,2.81-4.07-1.88-5C6.3-.53,9.21,2.79,6.82,7.41c-1.92,3.7-4.47,6.73-5.37,9.92-2.33,8.22,2.07,14.4,17,14.23C30.23,31.43,31.72,20.36,30.82,17Zm-4.68,9.21a3.11,3.11,0,0,0,.24-1.18c0-2.18-4.32-4.34-7.3-4.34s-3,1.56-3.87,4.92c-.27,1.13.47,2.19,1.69,2.93-5.52-.35-12.51-2-12.51-9.36a14.46,14.46,0,0,1,2.42-6.53c2-2.57,2.77-5.6,6.28-5.62,1.88,0,5.23,2.13,7.42,3,4.36,1.63,9.22,4.3,9.22,8.93A10.06,10.06,0,0,1,26.14,26.24Z" transform="translate(-0.86 -0.38)"/></svg>