<svg height="512" viewBox="0 0 512 512" width="512" xmlns="http://www.w3.org/2000/svg"><g id="flat"><path d="m40 48h376v256h-376z" fill="#c4f8ff"/><circle cx="280" cy="264" fill="#ea9d2d" r="24"/><path d="m256 304 72-64 88 64z" fill="#027e2a"/><g fill="#683b0d"><path d="m152 336-64 128h40l64-128z"/><path d="m232 336h40v128h-40z"/><path d="m328 152h-64v32h56z"/></g><path d="m432 208-48-16-40-40-24-8-16 8v32l32 8 24 24 32 16z" fill="#fdc9a6"/><path d="m144 304 80-72 96 72z" fill="#029532"/><path d="m40 304 80-80 96 80z" fill="#02a437"/><path d="m24 304h368v32h-368z" fill="#683b0d"/><path d="m24 320h368v16h-368z" fill="#533222"/><path d="m452.269 148v-24a28 28 0 0 0 -28-28 28 28 0 0 0 -28 28v24a28 28 0 0 0 16 25.3v18.7h32v-24h-.412a27.907 27.907 0 0 0 8.412-20z" fill="#fdc9a6"/><path d="m396.269 128-9.642-19.284a19.724 19.724 0 0 1 3.695-22.769 19.724 19.724 0 0 1 27.894 0l10.053 10.053h10.806a18.305 18.305 0 0 1 17.366 12.517l.25.75a18.3 18.3 0 0 1 -4.422 18.733v16h-24l-8-16z" fill="#683b0d"/><path d="m212.26 128.385a20.021 20.021 0 0 0 -9.327-7.125 24 24 0 0 0 -41.9 7.771 24.009 24.009 0 0 0 -17.033 22.969 24 24 0 0 0 24 24h40a24 24 0 0 0 24-24 24 24 0 0 0 -19.74-23.615z" fill="#fbfdff"/><path d="m40 202.286h24a24 24 0 0 0 24-24 24 24 0 0 0 -19.74-23.615 20.021 20.021 0 0 0 -9.327-7.125 23.953 23.953 0 0 0 -18.933-9.26z" fill="#fbfdff"/><path d="m240 104a8 8 0 0 1 -7.155-4.421l-.845-1.689a17.79 17.79 0 0 0 -16-9.89 8 8 0 0 1 0-16 33.7 33.7 0 0 1 24 9.931 33.7 33.7 0 0 1 24-9.931 8 8 0 0 1 0 16 17.791 17.791 0 0 0 -16 9.889l-.845 1.69a8 8 0 0 1 -7.155 4.421z" fill="#0292c9"/><path d="m296 128a8 8 0 0 1 -7.155-4.421l-.845-1.689a17.79 17.79 0 0 0 -16-9.89 8 8 0 0 1 0-16 33.7 33.7 0 0 1 24 9.931 33.7 33.7 0 0 1 24-9.931 8 8 0 0 1 0 16 17.791 17.791 0 0 0 -16 9.889l-.845 1.69a8 8 0 0 1 -7.155 4.421z" fill="#0292c9"/><path d="m264 152a69.3 69.3 0 0 0 -58.388 11.791l-5.612 4.209 5.612 4.209a69.3 69.3 0 0 0 58.388 11.791z" fill="#cbcbcb"/><path d="m32 48h8v256h-8z" fill="#a8a8a8"/><path d="m408 424v40h-48v-56l32-72h96v128h-48v-80z" fill="#48351b"/><rect fill="#cbcbcb" height="26.293" rx="13.146" width="68.269" x="232" y="277.707"/><path d="m360.269 232-20 32-40 32h-32l-16 16 19.731 24h36.269l48-40 33.696-50.544z" fill="#fdc9a6"/><path d="m414.065 192-32.9 12.72a24 24 0 0 0 -12.662 11.358l-8.234 15.922 31.731 16v88h96v-111.212a24 24 0 0 0 -15.77-22.545l-28.059-10.243z" fill="#ea9d2d"/><ellipse cx="258" cy="279" fill="#fbfdff" rx="8" ry="4"/><ellipse cx="279" cy="279" fill="#ee5e5b" rx="8" ry="4"/></g></svg>