<?xml version="1.0" encoding="iso-8859-1"?>
<!-- Generator: Adobe Illustrator 19.0.0, SVG Export Plug-In . SVG Version: 6.00 Build 0)  -->
<svg version="1.1" id="Capa_1" xmlns="http://www.w3.org/2000/svg" xmlns:xlink="http://www.w3.org/1999/xlink" x="0px" y="0px"
	 viewBox="0 0 512.002 512.002" style="enable-background:new 0 0 512.002 512.002;" xml:space="preserve">
<g>
	<g>
		<g>
			<path d="M366.398,150.402l27.2,16.88c6.319-10.338,11.221-21.477,14.576-33.12l-30.736-9.168
				C374.909,133.919,371.196,142.464,366.398,150.402z"/>
			<path d="M414.398,47.218l-1.728-11.824l-11.888-1.792c-9.283-1.14-18.631-1.675-27.984-1.6c-33.6,0-80,6.528-111.152,37.6
				c-3.694,3.704-7.101,7.684-10.192,11.904c-3.967-18.951-13.111-36.43-26.416-50.496C185.086-8.894,113.902,0.946,110.91,1.378
				L99.086,3.09l-1.712,11.824c-0.432,3.008-10.256,74.192,29.632,114.08c25.368,21.626,58.053,32.721,91.344,31.008
				c2.064,0,3.808,0,5.648-0.128v144.128h-112v144c0,35.346,28.654,64,64,64h128c35.346,0,64-28.654,64-64v-144h-112v-80.256
				c3.376,0.16,7.136,0.256,11.2,0.256c35.979,1.469,71.478-8.66,101.264-28.896l-19.504-25.328
				c-24.315,15.649-52.869,23.41-81.76,22.224c-4.08,0-7.776-0.112-10.96-0.288c-0.176-3.2-0.288-6.88-0.288-10.944
				c0-22.528,3.664-64,28.224-88.544s66.064-28.224,88.624-28.224c4.08,0,7.776,0.112,10.96,0.288
				c0.176,3.2,0.288,6.88,0.288,10.944c0.012,7.102-0.346,14.199-1.072,21.264l31.824,3.296c0.826-8.171,1.227-16.379,1.2-24.592
				C416.063,65.85,415.529,56.503,414.398,47.218z M223.886,127.842c-18.768,0.608-54.128-1.344-74.24-21.488
				S127.47,50.93,128.11,32.162c18.672-0.624,54.128,1.36,74.24,21.488S224.526,109.074,223.886,127.842z M335.998,336.002v112
				c0,17.673-14.327,32-32,32h-128c-17.673,0-32-14.327-32-32v-112H335.998z"/>
		</g>
	</g>
</g>
<g>
</g>
<g>
</g>
<g>
</g>
<g>
</g>
<g>
</g>
<g>
</g>
<g>
</g>
<g>
</g>
<g>
</g>
<g>
</g>
<g>
</g>
<g>
</g>
<g>
</g>
<g>
</g>
<g>
</g>
</svg>
