<svg id="Capa_1" enable-background="new 0 0 512.003 512.003" height="512" viewBox="0 0 512.003 512.003" width="512" xmlns="http://www.w3.org/2000/svg"><path d="m437.573 98.332c0-27.75-22.576-50.326-50.326-50.326-12.37 0-24.443 4.673-33.621 12.898v-11.021c7.688-2.28 13.315-9.399 13.315-17.816v-13.478c0-10.25-8.339-18.589-18.589-18.589h-12.426c-4.142 0-7.5 3.358-7.5 7.5s3.358 7.5 7.5 7.5h12.426c1.979 0 3.589 1.61 3.589 3.589v13.478c0 1.979-1.61 3.589-3.589 3.589h-184.7c-1.979 0-3.589-1.61-3.589-3.589v-13.478c0-1.979 1.61-3.589 3.589-3.589h140.312c4.142 0 7.5-3.358 7.5-7.5s-3.358-7.5-7.5-7.5h-140.312c-10.25 0-18.589 8.339-18.589 18.589v13.478c0 8.417 5.628 15.536 13.315 17.816v11.021c-9.178-8.225-21.251-12.898-33.621-12.898-27.75 0-50.326 22.576-50.326 50.326v64.251c0 24.143 6.014 48.053 17.383 69.349-6.552 38.312.262 78.531 20.852 113.475l64.663 109.74-41.64 37.521c-3.44 3.1-4.59 7.896-2.93 12.219 1.661 4.323 5.726 7.117 10.357 7.117h225.771c4.631 0 8.696-2.793 10.357-7.117 1.66-4.323.51-9.12-2.93-12.219l-41.64-37.521 32.799-55.663c2.103-3.569.914-8.167-2.654-10.269-3.569-2.103-8.167-.915-10.27 2.654l-12.553 21.304h-171.989l-44.418-75.382c-2.757-4.679-5.23-9.466-7.446-14.333h44.131c4.142 0 7.5-3.358 7.5-7.5s-3.358-7.5-7.5-7.5h-50.023c-15.492-46.45-7.936-98.222 21.868-138.771l7.12-9.686h229.525l7.12 9.686c29.804 40.549 37.36 92.321 21.868 138.771h-205.515c-4.142 0-7.5 3.358-7.5 7.5s3.358 7.5 7.5 7.5h199.623c-2.217 4.866-4.689 9.653-7.446 14.333l-15.638 26.539c-2.103 3.569-.914 8.167 2.654 10.27 1.196.704 2.506 1.039 3.801 1.039 2.568 0 5.07-1.32 6.468-3.693l15.638-26.539c20.59-34.944 27.404-75.163 20.852-113.475 11.37-21.296 17.383-45.206 17.383-69.349v-64.251zm-78.855 398.671h-205.433s35.507-32.02 35.771-32.303h133.891c.264.284 35.771 32.303 35.771 32.303zm-94.699-47.302v-21.528h27.174l-4.556 21.528zm-15 0h-22.619l-4.556-21.528h27.174v21.528zm72.149-1.18c-.227.385-.428.78-.613 1.18h-18.586l4.556-21.528h26.632zm-114.656-20.348 4.556 21.528h-19.62c-.185-.4-.386-.795-.613-1.18l-11.99-20.348zm-33.134-323.549v-53.968h165.248v53.967c0 2.213.225 4.391.621 6.527h-166.49c.396-2.135.621-4.313.621-6.526zm-75.74 103.715c-5.39-14.612-8.207-30.128-8.207-45.757v-64.25c0-19.479 15.847-35.326 35.326-35.326 9.441 0 18.643 3.87 25.247 10.617l8.375 8.557v21.446l-19.095-19.51c-3.799-3.883-9.094-6.109-14.526-6.109-11.208 0-20.326 9.118-20.326 20.326v64.251c0 7.798.795 15.628 2.353 23.315-3.61 7.295-6.659 14.795-9.147 22.44zm24.395-47.535c-.879 1.196-1.719 2.413-2.564 3.627-.011-.616-.039-1.232-.039-1.848v-64.251c0-2.937 2.389-5.326 5.326-5.326 1.402 0 2.825.598 3.806 1.601l24.06 24.583zm30.232-15.803 13.856-18.851h179.761l13.856 18.851zm207.117-25.812 24.06-24.583c.98-1.001 2.402-1.6 3.805-1.6 2.937 0 5.326 2.389 5.326 5.326v64.251c0 .623-.012 1.246-.023 1.87-.849-1.221-1.694-2.445-2.579-3.649zm63.191 43.394c0 15.63-2.815 31.15-8.206 45.763-2.488-7.648-5.538-15.15-9.148-22.448 1.558-7.688 2.353-15.517 2.353-23.315v-64.251c0-11.208-9.118-20.326-20.326-20.326-5.433 0-10.728 2.227-14.525 6.108l-19.096 19.511v-21.446l8.375-8.556c6.603-6.747 15.805-10.617 25.246-10.617 19.479 0 35.326 15.847 35.326 35.326v64.251z"/></svg>