<?xml version="1.0"?>
<svg xmlns="http://www.w3.org/2000/svg" viewBox="0 0 512 512" width="512" height="512"><g id="Outline"><path d="M397.49,16a97.867,97.867,0,0,0-69.657,28.853L51.313,321.372a16.02,16.02,0,0,0,0,22.628L64,356.687a16.021,16.021,0,0,0,22.628,0L115.313,328,184,396.686l-12.687,12.687-56.842-56.844-11.315,11.315L160,420.687l-4.686,4.685a16.02,16.02,0,0,0,0,22.628l12.473,12.473A82.5,82.5,0,0,1,45.23,352.677L31.8,343.987a98.51,98.51,0,0,0,152.372,123.16L235.314,416l1.343-1.343-.087-.087a15.981,15.981,0,0,0-1.256-21.2l-12.686-12.686a16,16,0,0,0-22.628,0l-4.687,4.686-5.7-5.705,15.811-23.716a35.6,35.6,0,0,0-49.37-49.37l-23.716,15.811-5.7-5.7L131.314,312a16,16,0,0,0,0-22.628l-12.686-12.686L275.314,120,288,132.687a16.021,16.021,0,0,0,22.628,0L315.313,128l5.706,5.706-15.81,23.715a35.611,35.611,0,0,0,49.369,49.369l23.715-15.81L384,196.687l-4.686,4.685a16.02,16.02,0,0,0,0,22.628L392,236.686,245.843,382.843l11.314,11.314,201-201L459.314,192a16,16,0,0,0,0-22.628l-12.686-12.686a16,16,0,0,0-22.628,0l-4.687,4.686L350.628,92.687,355.314,88a16,16,0,0,0,0-22.628L342.741,52.8A82.5,82.5,0,0,1,467.335,158.438l13.545,8.517A98.511,98.511,0,0,0,397.49,16ZM224,404.686l-44.686,44.686-12.686-12.685L211.313,392Zm-59.076-84.792a19.6,19.6,0,0,1,27.182,27.182l-14.035,21.053-34.2-34.2ZM120,300.686,75.314,345.372,62.628,332.687,107.314,288ZM345.7,193.479A19.6,19.6,0,0,1,318.521,166.3l14.036-21.053,34.2,34.2ZM448,180.686l-1.157,1.157h0l-43.529,43.529-12.686-12.686L435.313,168Zm-40-8-12.687,12.687-68.686-68.686L339.314,104ZM299.314,121.372l-12.686-12.686L331.314,64,344,76.686Z"/><path d="M323.313,176.687a12,12,0,1,0,12-12A12.013,12.013,0,0,0,323.313,176.687Z"/><path d="M187.313,336.687a12,12,0,1,0-12,12A12.012,12.012,0,0,0,187.313,336.687Z"/></g></svg>
