<?xml version="1.0" encoding="iso-8859-1"?>
<!-- Generator: Adobe Illustrator 19.0.0, SVG Export Plug-In . SVG Version: 6.00 Build 0)  -->
<svg version="1.1" id="Capa_1" xmlns="http://www.w3.org/2000/svg" xmlns:xlink="http://www.w3.org/1999/xlink" x="0px" y="0px"
	 viewBox="0 0 444.729 444.729" style="enable-background:new 0 0 444.729 444.729;" xml:space="preserve">
<g>
	<g>
		<path d="M311.3,164.729c0.016-0.293,0.016-0.587,0-0.88c-0.4-1.44-9.04-28.56-54.96-40v-36.72c0-4.418-3.582-8-8-8h-9.2v-48
			c0.115-2.574-1.017-5.045-3.04-6.64v0c-1.915-1.519-4.42-2.079-6.8-1.52l-38.32,8.96c-3.689,0.87-6.261,4.211-6.16,8v39.36h-8.96
			c-4.418,0-8,3.582-8,8v36.88c-45.84,11.2-54.56,38.4-54.96,40c-0.016,0.293-0.016,0.587,0,0.88c-0.041,0.452-0.041,0.908,0,1.36
			v270.32c0,4.418,3.582,8,8,8h182.4c4.418,0,8-3.582,8-8v-270.64C311.341,165.637,311.341,165.182,311.3,164.729z M200.82,46.089
			l22.32-5.28v38.32h-22.32V46.089z M183.94,95.129h56v25.84c-18.592-2.367-37.408-2.367-56,0V95.129z M211.86,135.209
			c45.68,0,66.96,13.2,76.48,22.88H135.3C144.82,148.329,166.18,135.209,211.86,135.209z M295.3,428.729H128.66v-254.64H295.3
			V428.729z"/>
	</g>
</g>
<g>
	<g>
		<path d="M258.98,237.369h-94c-9.411,0-17.04,7.629-17.04,17.04v94c0.044,9.38,7.66,16.96,17.04,16.96v0h94
			c9.411,0,17.04-7.629,17.04-17.04v-93.92C276.02,244.998,268.391,237.369,258.98,237.369z M260.02,348.409
			c0,0.574-0.466,1.04-1.04,1.04c0,0,0,0,0,0h-94c-0.574,0-1.04-0.466-1.04-1.04v-94.08c0-0.574,0.466-1.04,1.04-1.04h94
			c0.574,0,1.04,0.466,1.04,1.04V348.409z"/>
	</g>
</g>
<g>
	<g>
		<path d="M331.86,52.249c0-4.418-3.582-8-8-8H278.9c-4.418,0-8,3.582-8,8c0,4.418,3.582,8,8,8h45.04
			C328.327,60.205,331.86,56.637,331.86,52.249L331.86,52.249z"/>
	</g>
</g>
<g>
	<g>
		<path d="M326.34,5.049c-1.635-4.109-6.291-6.115-10.4-4.48l-40,16c-4.109,1.624-6.124,6.271-4.5,10.38
			c1.209,3.06,4.169,5.068,7.46,5.06h0c1.013,0.003,2.018-0.188,2.96-0.56l40-16C325.969,13.815,327.975,9.158,326.34,5.049z"/>
	</g>
</g>
<g>
	<g>
		<path d="M321.7,88.809l-40-16c-4.109-1.635-8.765,0.371-10.4,4.48s0.371,8.765,4.48,10.4l40,16c0.942,0.372,1.947,0.563,2.96,0.56
			v0c4.418,0.011,8.009-3.562,8.02-7.98C326.768,92.979,324.76,90.019,321.7,88.809z"/>
	</g>
</g>
<g>
</g>
<g>
</g>
<g>
</g>
<g>
</g>
<g>
</g>
<g>
</g>
<g>
</g>
<g>
</g>
<g>
</g>
<g>
</g>
<g>
</g>
<g>
</g>
<g>
</g>
<g>
</g>
<g>
</g>
</svg>
