<svg id="Warstwa_1" data-name="Warstwa 1" xmlns="http://www.w3.org/2000/svg" xmlns:xlink="http://www.w3.org/1999/xlink" viewBox="0 0 986.16 557.07"><defs><style>.cls-1{fill:#e7423c;}.cls-2{fill:none;}.cls-3{fill:url(#Gradient_bez_nazwy_45);}.cls-4{isolation:isolate;}.cls-5{fill:#f18c88;}.cls-6{clip-path:url(#clip-path);}.cls-7{clip-path:url(#clip-path-2);}.cls-8{clip-path:url(#clip-path-3);}.cls-9{clip-path:url(#clip-path-4);}.cls-10{clip-path:url(#clip-path-5);}</style><linearGradient id="Gradient_bez_nazwy_45" x1="740.63" y1="740.93" x2="740.63" y2="216.21" gradientTransform="translate(-126.8 137.17) rotate(-14.89)" gradientUnits="userSpaceOnUse"><stop offset="0" stop-color="#fff" stop-opacity="0"/><stop offset="0.15" stop-color="#fffcfc" stop-opacity="0.01"/><stop offset="0.27" stop-color="#fef4f4" stop-opacity="0.06"/><stop offset="0.38" stop-color="#fce6e5" stop-opacity="0.13"/><stop offset="0.48" stop-color="#f9d2d1" stop-opacity="0.24"/><stop offset="0.58" stop-color="#f6b9b6" stop-opacity="0.37"/><stop offset="0.68" stop-color="#f29996" stop-opacity="0.54"/><stop offset="0.77" stop-color="#ed7470" stop-opacity="0.74"/><stop offset="0.87" stop-color="#e84a44" stop-opacity="0.96"/><stop offset="0.88" stop-color="#e7423c"/></linearGradient><clipPath id="clip-path" transform="translate(-146.92 -17.97)"><path class="cls-1" d="M580.31,459.34H554c17.57,0,34.48-5.26,44.14-14.38h26.33C614.78,454.08,597.88,459.34,580.31,459.34Z"/></clipPath><clipPath id="clip-path-2" transform="translate(-146.92 -17.97)"><path class="cls-2" d="M632.73,283.33H606.41c-12.42-12.8-28.14-23.1-52.74-23.1H580C604.6,260.23,620.32,270.53,632.73,283.33Z"/></clipPath><clipPath id="clip-path-3" transform="translate(-146.92 -17.97)"><path class="cls-1" d="M577.36,486.75H551c-64.64,0-110.65-47.2-110.65-126.75,0-79,47.5-127.17,112.46-127.17h26.32c-65,0-112.46,48.17-112.46,127.17C466.71,439.55,512.73,486.75,577.36,486.75Z"/></clipPath><clipPath id="clip-path-4" transform="translate(-146.92 -17.97)"><path class="cls-1" d="M814.84,459.34H788.52c32.46,0,58.08-18.5,58.08-77.37h26.32C872.92,440.84,847.3,459.34,814.84,459.34Z"/></clipPath><clipPath id="clip-path-5" transform="translate(-146.92 -17.97)"><path class="cls-2" d="M814.84,486.75H788.52c-50,0-88.06-27-88.06-105.64h26.33C726.79,459.72,764.83,486.75,814.84,486.75Z"/></clipPath></defs><path class="cls-3" d="M932.56,232.7C863.93,108.26,638.4,138.31,594.43,100.37,522.14,38,622,14.08,538.82,18.48c-103.07,5.44-38.12,52.71-56,147-14.35,75.8-42.63,142.1-42.44,204,.48,159.29,104.21,251.76,354.53,181.92C992,496.46,963.67,289.12,932.56,232.7ZM898.28,420.58a63.57,63.57,0,0,0-1.6-22.43C886.2,358.73,803.12,338.74,753,352.08S709.3,394,711.73,458.56c.81,21.72,18.51,37.59,42.45,45.66-94.32,18.34-219.85,19.44-255.3-113.9-7.14-26.89-4-95,9.17-129.17,21.42-55.54,19.49-113.92,78.49-129.87,31.57-8.54,98.16,15.08,138.9,20.19,81.19,10.18,175.78,36.89,198.1,120.84C936.17,319.82,926.15,376.16,898.28,420.58Z" transform="translate(-146.92 -17.97)"/><g class="cls-4"><polygon class="cls-5" points="167.61 219.34 167.61 245.72 57.5 245.72 57.5 328.33 150.88 328.33 150.88 354.71 57.5 354.71 57.5 464.3 26.32 464.3 26.32 219.34 167.61 219.34"/><rect class="cls-1" y="219.34" width="26.32" height="244.95"/></g><g class="cls-4"><rect class="cls-5" x="221.91" y="219.34" width="31.18" height="244.95"/><rect class="cls-1" x="195.58" y="219.34" width="26.32" height="244.95"/></g><g class="cls-4"><rect class="cls-1" x="451.2" y="363.2" width="26.32" height="63.79"/><g class="cls-4"><path class="cls-1" d="M580.31,459.34H554c17.57,0,34.48-5.26,44.14-14.38h26.33C614.78,454.08,597.88,459.34,580.31,459.34Z" transform="translate(-146.92 -17.97)"/><g class="cls-6"><g class="cls-4"><path class="cls-1" d="M616.34,450.83H590a41.14,41.14,0,0,0,8.11-5.87h26.33a41.14,41.14,0,0,1-8.11,5.87" transform="translate(-146.92 -17.97)"/></g></g></g><g class="cls-4"><g class="cls-7"><g class="cls-4"><path class="cls-1" d="M632.73,283.33H606.41c-12.42-12.8-28.14-23.1-52.74-23.1H580c24.6,0,40.32,10.3,52.73,23.1" transform="translate(-146.92 -17.97)"/></g></g></g><rect class="cls-1" x="399.33" y="337.37" width="26.32" height="25.83"/><path class="cls-5" d="M579.17,232.83c34,0,56.31,15.41,70.65,30.21l-17.09,20.29c-12.41-12.8-28.13-23.1-52.73-23.1-49.37,0-81.08,37.92-81.08,98.94,0,61.58,29.12,100.17,81.39,100.17,17.57,0,34.47-5.26,44.14-14.38V381.17H572.57V355.34h80.31v103c-15.75,16.42-42.59,28.45-75.52,28.45-64.63,0-110.65-47.2-110.65-126.75C466.71,281,514.21,232.83,579.17,232.83Z" transform="translate(-146.92 -17.97)"/><g class="cls-4"><path class="cls-1" d="M577.36,486.75H551c-64.64,0-110.65-47.2-110.65-126.75,0-79,47.5-127.17,112.46-127.17h26.32c-65,0-112.46,48.17-112.46,127.17C466.71,439.55,512.73,486.75,577.36,486.75Z" transform="translate(-146.92 -17.97)"/><g class="cls-8"><g class="cls-4"><path class="cls-1" d="M577.36,486.75H551c-64.64,0-110.65-47.2-110.65-126.75,0-36.83,10.33-67,27.93-88.63h26.33C477,293,466.71,323.17,466.71,360c0,79.55,46,126.75,110.65,126.75" transform="translate(-146.92 -17.97)"/><path class="cls-1" d="M494.65,271.37H468.32a101.78,101.78,0,0,1,29.19-24.69h26.32a101.74,101.74,0,0,0-29.18,24.69" transform="translate(-146.92 -17.97)"/><path class="cls-1" d="M523.83,246.68H497.51c16.08-9.05,34.84-13.85,55.34-13.85h26.32c-20.5,0-39.26,4.8-55.34,13.85" transform="translate(-146.92 -17.97)"/></g></g></g></g><g class="cls-4"><rect class="cls-1" x="699.68" y="219.34" width="26.32" height="144.66"/><g class="cls-4"><path class="cls-1" d="M814.84,459.34H788.52c32.46,0,58.08-18.5,58.08-77.37h26.32C872.92,440.84,847.3,459.34,814.84,459.34Z" transform="translate(-146.92 -17.97)"/><g class="cls-9"><g class="cls-4"><path class="cls-1" d="M857.18,441.4H830.86c9.79-12.07,15.74-31.07,15.74-59.43h26.32c0,28.36-5.94,47.36-15.74,59.43" transform="translate(-146.92 -17.97)"/></g></g></g><g class="cls-4"><g class="cls-10"><g class="cls-4"><path class="cls-1" d="M814.84,486.75H788.52c-50,0-88.06-27-88.06-105.64h26.33c0,78.61,38,105.64,88.05,105.64" transform="translate(-146.92 -17.97)"/></g></g></g><path class="cls-5" d="M902.81,237.31v143.8c0,78.61-38,105.64-88,105.64s-88.05-27-88.05-105.64V237.31H758V382c0,58.87,24.88,77.37,56.87,77.37,32.46,0,58.08-18.5,58.08-77.37V237.31Z" transform="translate(-146.92 -17.97)"/><rect class="cls-1" x="553.54" y="219.34" width="26.32" height="143.8"/></g><g class="cls-4"><polygon class="cls-5" points="982.42 219.34 982.42 245.72 872.39 245.72 872.39 322.48 965.21 322.48 965.21 348.86 872.39 348.86 872.39 437.92 986.16 437.92 986.16 464.3 841.21 464.3 841.21 219.34 982.42 219.34"/><rect class="cls-1" x="814.89" y="219.34" width="26.32" height="244.95"/></g></svg>