<svg id="Warstwa_1" data-name="Warstwa 1" xmlns="http://www.w3.org/2000/svg" xmlns:xlink="http://www.w3.org/1999/xlink" viewBox="0 0 460.51 513.09"><defs><style>.cls-1{fill:url(#Gradient_bez_nazwy_25);}.cls-2{fill:url(#Gradient_bez_nazwy_15);}</style><linearGradient id="Gradient_bez_nazwy_25" x1="382.95" y1="754.43" x2="382.95" y2="293.72" gradientTransform="matrix(1, -0.01, 0.01, 1, 35.39, -106.97)" gradientUnits="userSpaceOnUse"><stop offset="0" stop-color="#fff" stop-opacity="0"/><stop offset="0.12" stop-color="#fad9d8" stop-opacity="0.2"/><stop offset="0.4" stop-color="#f08985" stop-opacity="0.63"/><stop offset="0.6" stop-color="#ea5650" stop-opacity="0.9"/><stop offset="0.69" stop-color="#e7423c"/></linearGradient><radialGradient id="Gradient_bez_nazwy_15" cx="399.77" cy="455.19" fx="336.29153565716035" fy="346.9920108216423" r="171.85" gradientTransform="matrix(1, -0.01, 0.01, 1, 35.39, -106.97)" gradientUnits="userSpaceOnUse"><stop offset="0" stop-color="#e7423c"/><stop offset="0.18" stop-color="#e7443f" stop-opacity="0.99"/><stop offset="0.32" stop-color="#e84c47" stop-opacity="0.95"/><stop offset="0.44" stop-color="#ea5a54" stop-opacity="0.87"/><stop offset="0.55" stop-color="#ec6c68" stop-opacity="0.78"/><stop offset="0.66" stop-color="#ef8581" stop-opacity="0.65"/><stop offset="0.77" stop-color="#f3a3a0" stop-opacity="0.49"/><stop offset="0.87" stop-color="#f8c6c4" stop-opacity="0.3"/><stop offset="0.96" stop-color="#fdeeed" stop-opacity="0.09"/><stop offset="1" stop-color="#fff" stop-opacity="0"/></radialGradient></defs><path class="cls-1" d="M647.73,313.63C616.9,192.71,418.62,168.42,389.64,126.48,342,57.5,432.16,59.24,360.48,44.6c-88.79-18.15-44,36.37-80.06,112.56-29,61.24-67.62,111.33-81.14,164-34.78,135.47,32.93,237,261.07,232.92C640,550.89,661.7,368.44,647.73,313.63ZM614.16,415.5C603.1,443.77,563,499.67,483.78,504.68c-258.7,13.71-239.39-152.93-239.39-152.93-.13-24.43,17.6-81.64,36.33-107.74,30.47-42.46,41.72-92.5,95.38-93,28.71-.27,80.09,34.51,113.57,47.85C556.42,225.42,630.89,269,631.31,345.29c.13,23.54-6,47.81-17.13,70.15A.14.14,0,0,1,614.16,415.5Z" transform="translate(-190.69 -41.09)"/><path class="cls-2" d="M599.28,360.19c-9.81,51.65-66.12,121.57-149.63,122S275.33,437.07,274.89,357.89,322.31,210.4,405.82,209.94,614.06,282.41,599.28,360.19Z" transform="translate(-190.69 -41.09)"/></svg>