<svg id="Warstwa_1" data-name="Warstwa 1" xmlns="http://www.w3.org/2000/svg" xmlns:xlink="http://www.w3.org/1999/xlink" viewBox="0 0 731.88 411.53"><defs><style>.cls-1{fill:#e7423c;}.cls-2{fill:none;}.cls-3{fill:url(#Gradient_bez_nazwy_40);}.cls-4{fill:url(#Gradient_bez_nazwy_21);}.cls-5{isolation:isolate;}.cls-6{fill:#f29681;}.cls-7{clip-path:url(#clip-path);}.cls-8{clip-path:url(#clip-path-2);}.cls-9{clip-path:url(#clip-path-3);}.cls-10{clip-path:url(#clip-path-4);}.cls-11{clip-path:url(#clip-path-5);}</style><linearGradient id="Gradient_bez_nazwy_40" x1="445.9" y1="588.97" x2="445.9" y2="199.55" gradientTransform="translate(-61.89 127.62) rotate(-16.5)" gradientUnits="userSpaceOnUse"><stop offset="0" stop-color="#fff" stop-opacity="0"/><stop offset="0.1" stop-color="#fffcfc" stop-opacity="0.02"/><stop offset="0.19" stop-color="#fdf3f2" stop-opacity="0.07"/><stop offset="0.28" stop-color="#fbe3e2" stop-opacity="0.15"/><stop offset="0.37" stop-color="#f9cdcc" stop-opacity="0.26"/><stop offset="0.46" stop-color="#f5b1af" stop-opacity="0.41"/><stop offset="0.54" stop-color="#f18f8b" stop-opacity="0.59"/><stop offset="0.63" stop-color="#ec6762" stop-opacity="0.81"/><stop offset="0.7" stop-color="#e7423c"/></linearGradient><radialGradient id="Gradient_bez_nazwy_21" cx="460.11" cy="336.04" fx="406.45912961323353" fy="244.58274469875983" r="145.26" gradientTransform="translate(-61.89 127.62) rotate(-16.5)" gradientUnits="userSpaceOnUse"><stop offset="0" stop-color="#e7423c"/><stop offset="0.38" stop-color="#e7443e" stop-opacity="0.99"/><stop offset="0.52" stop-color="#e84943" stop-opacity="0.96"/><stop offset="0.61" stop-color="#e9534d" stop-opacity="0.91"/><stop offset="0.69" stop-color="#eb615c" stop-opacity="0.84"/><stop offset="0.76" stop-color="#ed736e" stop-opacity="0.74"/><stop offset="0.82" stop-color="#f08985" stop-opacity="0.63"/><stop offset="0.88" stop-color="#f3a3a0" stop-opacity="0.48"/><stop offset="0.93" stop-color="#f7c2c0" stop-opacity="0.32"/><stop offset="0.97" stop-color="#fce4e3" stop-opacity="0.14"/><stop offset="1" stop-color="#fff" stop-opacity="0"/></radialGradient><clipPath id="clip-path" transform="translate(-55.01 -91.87)"><path class="cls-1" d="M376.65,418.49H357.11c13,0,25.58-3.91,32.76-10.67H409.4C402.23,414.58,389.69,418.49,376.65,418.49Z"/></clipPath><clipPath id="clip-path-2" transform="translate(-55.01 -91.87)"><path class="cls-2" d="M415.55,287.86H396c-9.21-9.5-20.87-17.14-39.13-17.14h19.53C394.67,270.72,406.34,278.36,415.55,287.86Z"/></clipPath><clipPath id="clip-path-3" transform="translate(-55.01 -91.87)"><path class="cls-1" d="M374.46,438.83H354.92c-48,0-82.11-35-82.11-94.07,0-58.62,35.25-94.37,83.45-94.37H375.8c-48.21,0-83.46,35.75-83.46,94.37C292.34,403.8,326.49,438.83,374.46,438.83Z"/></clipPath><clipPath id="clip-path-4" transform="translate(-55.01 -91.87)"><path class="cls-1" d="M550.7,418.49H531.17c24.09,0,43.1-13.73,43.1-57.42h19.54C593.81,404.76,574.79,418.49,550.7,418.49Z"/></clipPath><clipPath id="clip-path-5" transform="translate(-55.01 -91.87)"><path class="cls-2" d="M550.7,438.83H531.17c-37.12,0-65.35-20.06-65.35-78.4h19.53C485.35,418.77,513.59,438.83,550.7,438.83Z"/></clipPath></defs><path class="cls-3" d="M637.62,243.32c-53.51-90.89-220.19-63.88-253.6-91.1-54.93-44.76,18.67-64.6-43-59.59-76.35,6.19-27.18,39.9-38.46,110.23-9.07,56.53-28.66,106.31-27.22,152.25,3.69,118.16,82.57,184.58,266.81,127.54C687.23,437.75,661.88,284.52,637.62,243.32Zm-3.24,90.61c-2.32,25.55-21.7,80.38-84.82,103.11C342.79,509.13,319.2,369.31,319.2,369.31c-5.87-19.79-4.95-70.42,4.1-96,14.72-41.65,12.07-84.92,55.5-98,23.25-7,73.15,9.14,103.47,12.08,60.45,5.85,131.18,23.69,149.49,85.5,5.65,19.08,6.35,40.24,2.63,61A.13.13,0,0,0,634.38,333.93Z" transform="translate(-55.01 -91.87)"/><path class="cls-4" d="M609.27,292.54c4.2,44.23-25,114.26-92.71,134.31s-152.14,4.43-171.15-59.74,3.73-130.9,71.41-151S602.94,225.92,609.27,292.54Z" transform="translate(-55.01 -91.87)"/><g class="cls-5"><polygon class="cls-6" points="124.39 161.84 124.39 181.41 42.67 181.41 42.67 242.72 111.97 242.72 111.97 262.31 42.67 262.31 42.67 343.63 19.54 343.63 19.54 161.84 124.39 161.84"/><rect class="cls-1" y="161.84" width="19.54" height="181.79"/></g><g class="cls-5"><rect class="cls-6" x="164.69" y="161.84" width="23.14" height="181.79"/><rect class="cls-1" x="145.15" y="161.84" width="19.54" height="181.79"/></g><g class="cls-5"><rect class="cls-1" x="334.86" y="268.61" width="19.54" height="47.34"/><g class="cls-5"><path class="cls-1" d="M376.65,418.49H357.11c13,0,25.58-3.91,32.76-10.67H409.4C402.23,414.58,389.69,418.49,376.65,418.49Z" transform="translate(-55.01 -91.87)"/><g class="cls-7"><g class="cls-5"><path class="cls-1" d="M403.38,412.18H383.85a30.89,30.89,0,0,0,6-4.36H409.4a30.89,30.89,0,0,1-6,4.36" transform="translate(-55.01 -91.87)"/></g></g></g><g class="cls-5"><g class="cls-8"><g class="cls-5"><path class="cls-1" d="M415.55,287.86H396c-9.21-9.5-20.87-17.14-39.13-17.14h19.53c18.26,0,29.93,7.64,39.14,17.14" transform="translate(-55.01 -91.87)"/></g></g></g><rect class="cls-1" x="296.36" y="249.44" width="19.54" height="19.17"/><path class="cls-6" d="M375.8,250.39c25.19,0,41.79,11.43,52.43,22.42l-12.68,15.05c-9.21-9.5-20.88-17.14-39.14-17.14-36.63,0-60.17,28.14-60.17,73.43,0,45.7,21.62,74.34,60.41,74.34,13,0,25.58-3.91,32.75-10.67V360.48H370.9V341.31h59.6v76.41c-11.69,12.18-31.6,21.11-56,21.11-48,0-82.12-35-82.12-94.07C292.34,286.14,327.59,250.39,375.8,250.39Z" transform="translate(-55.01 -91.87)"/><g class="cls-5"><path class="cls-1" d="M374.46,438.83H354.92c-48,0-82.11-35-82.11-94.07,0-58.62,35.25-94.37,83.45-94.37H375.8c-48.21,0-83.46,35.75-83.46,94.37C292.34,403.8,326.49,438.83,374.46,438.83Z" transform="translate(-55.01 -91.87)"/><g class="cls-9"><g class="cls-5"><path class="cls-1" d="M374.46,438.83H354.92c-48,0-82.11-35-82.11-94.07,0-27.33,7.66-49.69,20.72-65.77h19.54c-13.07,16.08-20.73,38.44-20.73,65.77,0,59,34.15,94.07,82.12,94.07" transform="translate(-55.01 -91.87)"/><path class="cls-1" d="M313.07,279H293.53a75.79,75.79,0,0,1,21.67-18.33h19.53A75.75,75.75,0,0,0,313.07,279" transform="translate(-55.01 -91.87)"/><path class="cls-1" d="M334.73,260.66H315.2c11.93-6.71,25.85-10.27,41.06-10.27H375.8c-15.21,0-29.14,3.56-41.07,10.27" transform="translate(-55.01 -91.87)"/></g></g></g></g><g class="cls-5"><rect class="cls-1" x="519.26" y="161.84" width="19.54" height="107.36"/><g class="cls-5"><path class="cls-1" d="M550.7,418.49H531.17c24.09,0,43.1-13.73,43.1-57.42h19.54C593.81,404.76,574.79,418.49,550.7,418.49Z" transform="translate(-55.01 -91.87)"/><g class="cls-10"><g class="cls-5"><path class="cls-1" d="M582.12,405.17H562.59c7.27-8.95,11.68-23.05,11.68-44.1h19.54c0,21.05-4.42,35.15-11.69,44.1" transform="translate(-55.01 -91.87)"/></g></g></g><g class="cls-5"><g class="cls-11"><g class="cls-5"><path class="cls-1" d="M550.7,438.83H531.17c-37.12,0-65.35-20.06-65.35-78.4h19.53c0,58.34,28.24,78.4,65.35,78.4" transform="translate(-55.01 -91.87)"/></g></g></g><path class="cls-6" d="M616,253.71V360.43c0,58.34-28.17,78.4-65.29,78.4s-65.35-20.06-65.35-78.4V253.71h23.14V361.07c0,43.69,18.47,57.42,42.21,57.42,24.09,0,43.11-13.73,43.11-57.42V253.71Z" transform="translate(-55.01 -91.87)"/><rect class="cls-1" x="410.81" y="161.84" width="19.54" height="106.72"/></g><g class="cls-5"><polygon class="cls-6" points="729.1 161.84 729.1 181.41 647.44 181.41 647.44 238.38 716.33 238.38 716.33 257.96 647.44 257.96 647.44 324.06 731.88 324.06 731.88 343.63 624.3 343.63 624.3 161.84 729.1 161.84"/><rect class="cls-1" x="604.76" y="161.84" width="19.54" height="181.79"/></g></svg>